<svg xmlns="http://www.w3.org/2000/svg" width="47.9647mm" height="9.6498mm" version="1.1" viewBox="0 0 4793.74 964.43">
 <g id="logo">
  <path fill="#ffffff" d="M896.15 782.91l-239.38 0 -210.67 -532.09 -210.24 532.09 -235.45 0 334.1 -782.91 224.92 0 336.72 782.91zm954.94 0l-238.07 0 0 -489.32 -395.91 489.32 -214.41 0 0 -782.91 238.08 0 0 478.45 413.01 -478.45 197.3 0 0 782.91zm985.19 0l-238.07 0 0 -321.87 -311.73 0 0 321.87 -238.07 0 0 -782.91 238.07 0 0 306.65 311.73 0 0 -306.65 238.07 0 0 782.91zm1047.01 0l-238.07 0 0 -489.32 -395.92 489.32 -214.4 0 0 -782.91 238.07 0 0 478.45 413.01 -478.45 197.31 0 0 782.91zm910.43 0l-238.07 0 0 -333.82 -295.95 333.82 -272.28 0 293.32 -310.99c-77.17,-14.49 -135.04,-38.06 -173.63,-70.68 -48.22,-39.14 -72.34,-92.79 -72.34,-160.93 0,-85.54 38.58,-148.98 115.74,-190.29 63.14,-33.34 149.08,-50.02 257.81,-50.02l385.39 0 0 782.91zm-238.07 -438.21l0 -192.47 -138.11 0c-92.95,0 -139.43,30.45 -139.43,91.34 0,34.07 15.35,60.18 46.04,78.3 26.31,15.22 60.94,22.84 103.91,22.84l127.59 0z"/>
  <polygon fill="#ffffff" points="-0,902.87 4793.74,902.87 4793.74,964.43 -0,964.43 "/>
 </g>
</svg>
